<svg width="23" height="28" viewBox="0 0 23 28" fill="none" xmlns="http://www.w3.org/2000/svg">
<path d="M19.041 14.8756C19.0802 19.1127 22.7584 20.5229 22.799 20.541C22.7679 20.6401 22.2114 22.5505 20.8614 24.5232C19.6944 26.2289 18.483 27.9283 16.5751 27.9639C14.7004 27.9981 14.0975 26.8519 11.9539 26.8519C9.811 26.8519 9.14139 27.9283 7.36652 27.9981C5.52471 28.068 4.12216 26.1534 2.94545 24.4543C0.541087 20.978 -1.29644 14.631 1.1708 10.3468C2.39642 8.21918 4.58712 6.87208 6.96466 6.83738C8.77312 6.80289 10.4802 8.05398 11.5856 8.05398C12.6905 8.05398 14.7649 6.54934 16.9457 6.77021C17.8587 6.8083 20.4212 7.13893 22.0668 9.5478C21.9345 9.63007 19.0092 11.333 19.041 14.8756ZM15.5176 4.47065C16.4953 3.28718 17.1535 1.63919 16.974 0C15.5645 0.0565706 13.8602 0.939161 12.8494 2.12218C11.9433 3.16953 11.15 4.84636 11.3639 6.4531C12.935 6.57481 14.5397 5.6548 15.5176 4.47065Z" fill="#1F2937"/>
</svg>
