<svg width="28" height="29" viewBox="0 0 28 29" fill="none" xmlns="http://www.w3.org/2000/svg">
<path d="M27.44 14.3075C27.44 13.1564 27.3466 12.3164 27.1444 11.4453H14V16.6408H21.7155C21.56 17.932 20.72 19.8764 18.8533 21.183L18.8271 21.3569L22.9832 24.5766L23.2711 24.6053C25.9155 22.1631 27.44 18.5697 27.44 14.3075Z" fill="#4285F4"/>
<path d="M14.0087 28.0045C17.7886 28.0045 20.9619 26.76 23.2798 24.6134L18.862 21.1911C17.6798 22.0156 16.0931 22.5911 14.0087 22.5911C10.3065 22.5911 7.16426 20.149 6.04415 16.7734L5.87997 16.7874L1.55847 20.1318L1.50195 20.2889C3.80415 24.8622 8.53305 28.0045 14.0087 28.0045Z" fill="#34A853"/>
<path d="M6.0355 16.7699C5.73995 15.8988 5.5689 14.9654 5.5689 14.001C5.5689 13.0365 5.73995 12.1032 6.01995 11.2321L6.01212 11.0466L1.63646 7.64844L1.4933 7.71653C0.54445 9.61434 0 11.7455 0 14.001C0 16.2566 0.54445 18.3876 1.4933 20.2854L6.0355 16.7699Z" fill="#FBBC05"/>
<path d="M14.0086 5.4133C16.6375 5.4133 18.4108 6.54885 19.4219 7.49781L23.373 3.64C20.9464 1.38445 17.7886 0 14.0086 0C8.53305 0 3.80415 3.1422 1.50195 7.7155L6.0286 11.2311C7.16426 7.85555 10.3065 5.4133 14.0086 5.4133Z" fill="#EB4335"/>
</svg>
